<mxfile host="app.diagrams.net" agent="Mozilla/5.0 (Windows NT 10.0; Win64; x64) AppleWebKit/537.36 (KHTML, like Gecko) Chrome/131.0.0.0 Safari/537.36" version="25.0.3">
  <diagram name="Pagina-1" id="ktaXxPacxgZP-KeudJCP">
    <mxGraphModel dx="1434" dy="756" grid="1" gridSize="10" guides="1" tooltips="1" connect="1" arrows="1" fold="1" page="1" pageScale="1" pageWidth="827" pageHeight="1169" math="0" shadow="0">
      <root>
        <mxCell id="0" />
        <mxCell id="1" parent="0" />
        <mxCell id="-9enYQHF0VOgYdRqno-H-20" value="Region" style="points=[[0,0],[0.25,0],[0.5,0],[0.75,0],[1,0],[1,0.25],[1,0.5],[1,0.75],[1,1],[0.75,1],[0.5,1],[0.25,1],[0,1],[0,0.75],[0,0.5],[0,0.25]];outlineConnect=0;gradientColor=none;html=1;whiteSpace=wrap;fontSize=12;fontStyle=0;container=1;pointerEvents=0;collapsible=0;recursiveResize=0;shape=mxgraph.aws4.group;grIcon=mxgraph.aws4.group_region;strokeColor=#00A4A6;fillColor=none;verticalAlign=top;align=left;spacingLeft=30;fontColor=#147EBA;dashed=1;" parent="1" vertex="1">
          <mxGeometry x="10" y="10" width="810" height="540" as="geometry" />
        </mxCell>
        <mxCell id="9Gb6LifbftmSmuCiHd8n-2" value="Availability Zone" style="fillColor=none;strokeColor=#147EBA;dashed=1;verticalAlign=top;fontStyle=0;fontColor=#147EBA;whiteSpace=wrap;html=1;" parent="-9enYQHF0VOgYdRqno-H-20" vertex="1">
          <mxGeometry x="300" y="70" width="200" height="360" as="geometry" />
        </mxCell>
        <mxCell id="9Gb6LifbftmSmuCiHd8n-8" value="Subnet-DBS" style="points=[[0,0],[0.25,0],[0.5,0],[0.75,0],[1,0],[1,0.25],[1,0.5],[1,0.75],[1,1],[0.75,1],[0.5,1],[0.25,1],[0,1],[0,0.75],[0,0.5],[0,0.25]];outlineConnect=0;gradientColor=none;html=1;whiteSpace=wrap;fontSize=12;fontStyle=0;container=1;pointerEvents=0;collapsible=0;recursiveResize=0;shape=mxgraph.aws4.group;grIcon=mxgraph.aws4.group_security_group;grStroke=0;strokeColor=#00A4A6;fillColor=#E6F6F7;verticalAlign=top;align=left;spacingLeft=30;fontColor=#147EBA;dashed=0;" parent="-9enYQHF0VOgYdRqno-H-20" vertex="1">
          <mxGeometry x="310" y="330" width="180" height="90" as="geometry" />
        </mxCell>
        <mxCell id="9Gb6LifbftmSmuCiHd8n-9" value="Subnet-BE" style="points=[[0,0],[0.25,0],[0.5,0],[0.75,0],[1,0],[1,0.25],[1,0.5],[1,0.75],[1,1],[0.75,1],[0.5,1],[0.25,1],[0,1],[0,0.75],[0,0.5],[0,0.25]];outlineConnect=0;gradientColor=none;html=1;whiteSpace=wrap;fontSize=12;fontStyle=0;container=1;pointerEvents=0;collapsible=0;recursiveResize=0;shape=mxgraph.aws4.group;grIcon=mxgraph.aws4.group_security_group;grStroke=0;strokeColor=#00A4A6;fillColor=#E6F6F7;verticalAlign=top;align=left;spacingLeft=30;fontColor=#147EBA;dashed=0;" parent="-9enYQHF0VOgYdRqno-H-20" vertex="1">
          <mxGeometry x="310" y="210" width="180" height="100" as="geometry" />
        </mxCell>
        <mxCell id="9Gb6LifbftmSmuCiHd8n-12" value="Subnet-FE" style="points=[[0,0],[0.25,0],[0.5,0],[0.75,0],[1,0],[1,0.25],[1,0.5],[1,0.75],[1,1],[0.75,1],[0.5,1],[0.25,1],[0,1],[0,0.75],[0,0.5],[0,0.25]];outlineConnect=0;gradientColor=none;html=1;whiteSpace=wrap;fontSize=12;fontStyle=0;container=1;pointerEvents=0;collapsible=0;recursiveResize=0;shape=mxgraph.aws4.group;grIcon=mxgraph.aws4.group_security_group;grStroke=0;strokeColor=#00A4A6;fillColor=#E6F6F7;verticalAlign=top;align=left;spacingLeft=30;fontColor=#147EBA;dashed=0;" parent="-9enYQHF0VOgYdRqno-H-20" vertex="1">
          <mxGeometry x="310" y="100" width="180" height="90" as="geometry" />
        </mxCell>
        <mxCell id="u8LrWXwpnJPrBiu5wdxT-2" value="Availability Zone" style="fillColor=none;strokeColor=#147EBA;dashed=1;verticalAlign=top;fontStyle=0;fontColor=#147EBA;whiteSpace=wrap;html=1;" parent="-9enYQHF0VOgYdRqno-H-20" vertex="1">
          <mxGeometry x="540" y="70" width="200" height="360" as="geometry" />
        </mxCell>
        <mxCell id="u8LrWXwpnJPrBiu5wdxT-3" value="Subnet-DBS" style="points=[[0,0],[0.25,0],[0.5,0],[0.75,0],[1,0],[1,0.25],[1,0.5],[1,0.75],[1,1],[0.75,1],[0.5,1],[0.25,1],[0,1],[0,0.75],[0,0.5],[0,0.25]];outlineConnect=0;gradientColor=none;html=1;whiteSpace=wrap;fontSize=12;fontStyle=0;container=1;pointerEvents=0;collapsible=0;recursiveResize=0;shape=mxgraph.aws4.group;grIcon=mxgraph.aws4.group_security_group;grStroke=0;strokeColor=#00A4A6;fillColor=#E6F6F7;verticalAlign=top;align=left;spacingLeft=30;fontColor=#147EBA;dashed=0;" parent="-9enYQHF0VOgYdRqno-H-20" vertex="1">
          <mxGeometry x="550" y="330" width="180" height="90" as="geometry" />
        </mxCell>
        <mxCell id="u8LrWXwpnJPrBiu5wdxT-4" value="Subnet-BE" style="points=[[0,0],[0.25,0],[0.5,0],[0.75,0],[1,0],[1,0.25],[1,0.5],[1,0.75],[1,1],[0.75,1],[0.5,1],[0.25,1],[0,1],[0,0.75],[0,0.5],[0,0.25]];outlineConnect=0;gradientColor=none;html=1;whiteSpace=wrap;fontSize=12;fontStyle=0;container=1;pointerEvents=0;collapsible=0;recursiveResize=0;shape=mxgraph.aws4.group;grIcon=mxgraph.aws4.group_security_group;grStroke=0;strokeColor=#00A4A6;fillColor=#E6F6F7;verticalAlign=top;align=left;spacingLeft=30;fontColor=#147EBA;dashed=0;" parent="-9enYQHF0VOgYdRqno-H-20" vertex="1">
          <mxGeometry x="550" y="210" width="180" height="100" as="geometry" />
        </mxCell>
        <mxCell id="u8LrWXwpnJPrBiu5wdxT-5" value="Subnet-FE" style="points=[[0,0],[0.25,0],[0.5,0],[0.75,0],[1,0],[1,0.25],[1,0.5],[1,0.75],[1,1],[0.75,1],[0.5,1],[0.25,1],[0,1],[0,0.75],[0,0.5],[0,0.25]];outlineConnect=0;gradientColor=none;html=1;whiteSpace=wrap;fontSize=12;fontStyle=0;container=1;pointerEvents=0;collapsible=0;recursiveResize=0;shape=mxgraph.aws4.group;grIcon=mxgraph.aws4.group_security_group;grStroke=0;strokeColor=#00A4A6;fillColor=#E6F6F7;verticalAlign=top;align=left;spacingLeft=30;fontColor=#147EBA;dashed=0;" parent="-9enYQHF0VOgYdRqno-H-20" vertex="1">
          <mxGeometry x="550" y="100" width="180" height="90" as="geometry" />
        </mxCell>
        <mxCell id="u8LrWXwpnJPrBiu5wdxT-7" value="Availability Zone" style="fillColor=none;strokeColor=#147EBA;dashed=1;verticalAlign=top;fontStyle=0;fontColor=#147EBA;whiteSpace=wrap;html=1;" parent="-9enYQHF0VOgYdRqno-H-20" vertex="1">
          <mxGeometry x="60" y="70" width="200" height="360" as="geometry" />
        </mxCell>
        <mxCell id="u8LrWXwpnJPrBiu5wdxT-8" value="Subnet-DBS" style="points=[[0,0],[0.25,0],[0.5,0],[0.75,0],[1,0],[1,0.25],[1,0.5],[1,0.75],[1,1],[0.75,1],[0.5,1],[0.25,1],[0,1],[0,0.75],[0,0.5],[0,0.25]];outlineConnect=0;gradientColor=none;html=1;whiteSpace=wrap;fontSize=12;fontStyle=0;container=1;pointerEvents=0;collapsible=0;recursiveResize=0;shape=mxgraph.aws4.group;grIcon=mxgraph.aws4.group_security_group;grStroke=0;strokeColor=#00A4A6;fillColor=#E6F6F7;verticalAlign=top;align=left;spacingLeft=30;fontColor=#147EBA;dashed=0;" parent="-9enYQHF0VOgYdRqno-H-20" vertex="1">
          <mxGeometry x="70" y="330" width="180" height="90" as="geometry" />
        </mxCell>
        <mxCell id="u8LrWXwpnJPrBiu5wdxT-9" value="Subnet-BE" style="points=[[0,0],[0.25,0],[0.5,0],[0.75,0],[1,0],[1,0.25],[1,0.5],[1,0.75],[1,1],[0.75,1],[0.5,1],[0.25,1],[0,1],[0,0.75],[0,0.5],[0,0.25]];outlineConnect=0;gradientColor=none;html=1;whiteSpace=wrap;fontSize=12;fontStyle=0;container=1;pointerEvents=0;collapsible=0;recursiveResize=0;shape=mxgraph.aws4.group;grIcon=mxgraph.aws4.group_security_group;grStroke=0;strokeColor=#00A4A6;fillColor=#E6F6F7;verticalAlign=top;align=left;spacingLeft=30;fontColor=#147EBA;dashed=0;" parent="-9enYQHF0VOgYdRqno-H-20" vertex="1">
          <mxGeometry x="70" y="210" width="180" height="100" as="geometry" />
        </mxCell>
        <mxCell id="u8LrWXwpnJPrBiu5wdxT-10" value="Subnet-FE" style="points=[[0,0],[0.25,0],[0.5,0],[0.75,0],[1,0],[1,0.25],[1,0.5],[1,0.75],[1,1],[0.75,1],[0.5,1],[0.25,1],[0,1],[0,0.75],[0,0.5],[0,0.25]];outlineConnect=0;gradientColor=none;html=1;whiteSpace=wrap;fontSize=12;fontStyle=0;container=1;pointerEvents=0;collapsible=0;recursiveResize=0;shape=mxgraph.aws4.group;grIcon=mxgraph.aws4.group_security_group;grStroke=0;strokeColor=#00A4A6;fillColor=#E6F6F7;verticalAlign=top;align=left;spacingLeft=30;fontColor=#147EBA;dashed=0;" parent="-9enYQHF0VOgYdRqno-H-20" vertex="1">
          <mxGeometry x="70" y="100" width="180" height="90" as="geometry" />
        </mxCell>
        <mxCell id="u8LrWXwpnJPrBiu5wdxT-11" value="VPC" style="points=[[0,0],[0.25,0],[0.5,0],[0.75,0],[1,0],[1,0.25],[1,0.5],[1,0.75],[1,1],[0.75,1],[0.5,1],[0.25,1],[0,1],[0,0.75],[0,0.5],[0,0.25]];outlineConnect=0;gradientColor=none;html=1;whiteSpace=wrap;fontSize=12;fontStyle=0;container=1;pointerEvents=0;collapsible=0;recursiveResize=0;shape=mxgraph.aws4.group;grIcon=mxgraph.aws4.group_vpc2;strokeColor=#8C4FFF;fillColor=none;verticalAlign=top;align=left;spacingLeft=30;fontColor=#AAB7B8;dashed=0;" parent="-9enYQHF0VOgYdRqno-H-20" vertex="1">
          <mxGeometry x="20" y="30" width="760" height="480" as="geometry" />
        </mxCell>
        <mxCell id="tb9fbKt0cQ2Bvuai_FGO-18" value="" style="edgeStyle=orthogonalEdgeStyle;rounded=0;orthogonalLoop=1;jettySize=auto;html=1;" parent="u8LrWXwpnJPrBiu5wdxT-11" source="tb9fbKt0cQ2Bvuai_FGO-2" edge="1">
          <mxGeometry relative="1" as="geometry">
            <mxPoint x="425" y="235" as="targetPoint" />
          </mxGeometry>
        </mxCell>
        <mxCell id="-9enYQHF0VOgYdRqno-H-12" value="" style="edgeStyle=orthogonalEdgeStyle;rounded=0;orthogonalLoop=1;jettySize=auto;html=1;" parent="u8LrWXwpnJPrBiu5wdxT-11" source="-9enYQHF0VOgYdRqno-H-4" edge="1">
          <mxGeometry relative="1" as="geometry">
            <Array as="points">
              <mxPoint x="380" y="150" />
              <mxPoint x="495" y="150" />
            </Array>
            <mxPoint x="495" y="190.00034090134318" as="targetPoint" />
          </mxGeometry>
        </mxCell>
        <mxCell id="-9enYQHF0VOgYdRqno-H-13" value="" style="edgeStyle=orthogonalEdgeStyle;rounded=0;orthogonalLoop=1;jettySize=auto;html=1;" parent="u8LrWXwpnJPrBiu5wdxT-11" source="-9enYQHF0VOgYdRqno-H-3" edge="1">
          <mxGeometry relative="1" as="geometry">
            <Array as="points">
              <mxPoint x="625" y="150" />
              <mxPoint x="495" y="150" />
            </Array>
            <mxPoint x="495" y="190.00034090134318" as="targetPoint" />
          </mxGeometry>
        </mxCell>
        <mxCell id="-9enYQHF0VOgYdRqno-H-6" value="" style="edgeStyle=orthogonalEdgeStyle;rounded=0;orthogonalLoop=1;jettySize=auto;html=1;" parent="u8LrWXwpnJPrBiu5wdxT-11" source="-9enYQHF0VOgYdRqno-H-5" edge="1">
          <mxGeometry relative="1" as="geometry">
            <mxPoint x="380" y="100" as="targetPoint" />
          </mxGeometry>
        </mxCell>
        <mxCell id="-9enYQHF0VOgYdRqno-H-9" style="edgeStyle=orthogonalEdgeStyle;rounded=0;orthogonalLoop=1;jettySize=auto;html=1;entryX=0.5;entryY=0;entryDx=0;entryDy=0;entryPerimeter=0;" parent="u8LrWXwpnJPrBiu5wdxT-11" source="-9enYQHF0VOgYdRqno-H-5" edge="1">
          <mxGeometry relative="1" as="geometry">
            <mxPoint x="135" y="100" as="targetPoint" />
          </mxGeometry>
        </mxCell>
        <mxCell id="-9enYQHF0VOgYdRqno-H-10" style="edgeStyle=orthogonalEdgeStyle;rounded=0;orthogonalLoop=1;jettySize=auto;html=1;entryX=0.5;entryY=0;entryDx=0;entryDy=0;entryPerimeter=0;" parent="u8LrWXwpnJPrBiu5wdxT-11" target="-9enYQHF0VOgYdRqno-H-3" edge="1">
          <mxGeometry relative="1" as="geometry">
            <mxPoint x="395" y="25" as="sourcePoint" />
          </mxGeometry>
        </mxCell>
        <mxCell id="-9enYQHF0VOgYdRqno-H-11" value="" style="edgeStyle=orthogonalEdgeStyle;rounded=0;orthogonalLoop=1;jettySize=auto;html=1;" parent="u8LrWXwpnJPrBiu5wdxT-11" source="-9enYQHF0VOgYdRqno-H-2" edge="1">
          <mxGeometry relative="1" as="geometry">
            <Array as="points">
              <mxPoint x="135" y="150" />
              <mxPoint x="495" y="150" />
            </Array>
            <mxPoint x="495" y="190.00034090134318" as="targetPoint" />
          </mxGeometry>
        </mxCell>
        <mxCell id="-9enYQHF0VOgYdRqno-H-21" style="edgeStyle=orthogonalEdgeStyle;rounded=0;orthogonalLoop=1;jettySize=auto;html=1;shape=link;" parent="u8LrWXwpnJPrBiu5wdxT-11" source="-9enYQHF0VOgYdRqno-H-17" edge="1">
          <mxGeometry relative="1" as="geometry">
            <mxPoint x="359" y="355" as="targetPoint" />
          </mxGeometry>
        </mxCell>
        <mxCell id="-9enYQHF0VOgYdRqno-H-22" style="edgeStyle=orthogonalEdgeStyle;rounded=0;orthogonalLoop=1;jettySize=auto;html=1;shape=link;" parent="u8LrWXwpnJPrBiu5wdxT-11" source="-9enYQHF0VOgYdRqno-H-19" edge="1">
          <mxGeometry relative="1" as="geometry">
            <mxPoint x="600" y="355" as="targetPoint" />
          </mxGeometry>
        </mxCell>
      </root>
    </mxGraphModel>
  </diagram>
</mxfile>
